<?xml version="1.0" encoding="utf-8"?>
<!-- Generator: Adobe Illustrator 22.0.1, SVG Export Plug-In . SVG Version: 6.00 Build 0)  -->
<svg version="1.1" id="Layer_1" xmlns="http://www.w3.org/2000/svg" xmlns:xlink="http://www.w3.org/1999/xlink" x="0px" y="0px"
	 viewBox="0 0 480 480" style="enable-background:new 0 0 480 480;" xml:space="preserve">
<style type="text/css">
	.st0{display:none;opacity:0.81;}
	.st1{display:inline;fill:#1A1A1A;}
	.st2{fill:#787878;}
	.st3{fill:#0099CC;}
</style>
<g class="st0">
	<path class="st1" d="M279.8,340.2L226,267.5v72.7h-70.4V109.8h88.2c88.6,0,97.2,46.8,97.2,77c0,25.6-9,65.5-64.1,68.8l74.2,84.6
		H279.8z M243.1,157.3h-29.2v58.3h29.2c32,0,38.9-15.5,38.9-28.8C282,172.4,275.1,157.3,243.1,157.3z"/>
</g>
<g>
	<g>
		<path class="st2" d="M290.8,461L187.5,321.5V461h-135V19h169.2c169.9,0,186.5,89.8,186.5,147.8c0,49-11.4,132.4-117,138.6
			L427.5,461H290.8z M220.3,110.2h-55.9V222h55.9c61.5,0,74.6-29.7,74.6-55.2C294.9,139.2,281.8,110.2,220.3,110.2z"/>
	</g>
</g>
<g>
	<polygon class="st3" points="386.5,211.7 52.5,19 52.5,404.3 	"/>
</g>
<path d="M273.1,138.2"/>
</svg>
