<?xml version="1.0" encoding="utf-8"?>
<!-- Generator: Adobe Illustrator 22.0.1, SVG Export Plug-In . SVG Version: 6.00 Build 0)  -->
<svg version="1.1" id="Layer_1" xmlns="http://www.w3.org/2000/svg" xmlns:xlink="http://www.w3.org/1999/xlink" x="0px" y="0px"
	 viewBox="0 0 24 24" style="enable-background:new 0 0 24 24;" xml:space="preserve">
<style type="text/css">
	.st0{fill:#E2E2E2;}
</style>
<path class="st0" d="M19,0c2.8,0,5,2.2,5,5v14c0,2.8-2.2,5-5,5H5c-2.8,0-5-2.2-5-5V5c0-2.8,2.2-5,5-5H19z M12,4c-4.4,0-8,3.6-8,8
	c0,4.4,3.6,8,8,8s8-3.6,8-8C20,7.6,16.4,4,12,4z M15.7,15.5c-0.1,0.2-0.5,0.3-0.7,0.2c-1.9-1.1-4.2-1.4-7-0.8
	c-0.3,0.1-0.5-0.1-0.6-0.4C7.3,14.3,7.5,14,7.7,14c3-0.7,5.7-0.4,7.8,0.9C15.7,15,15.8,15.3,15.7,15.5z M16.6,13.4
	c-0.2,0.3-0.6,0.4-0.9,0.2c-2.1-1.3-5.4-1.7-8-0.9c-0.3,0.1-0.7-0.1-0.8-0.4c-0.1-0.3,0.1-0.7,0.4-0.8c2.9-0.9,6.5-0.5,9,1.1
	C16.7,12.7,16.8,13.1,16.6,13.4z M16.7,11.1c-2.6-1.5-6.8-1.7-9.3-0.9C7,10.3,6.6,10.1,6.5,9.7C6.4,9.3,6.6,8.9,7,8.7
	C9.8,7.9,14.5,8,17.5,9.8c0.4,0.2,0.5,0.7,0.3,1C17.5,11.2,17.1,11.3,16.7,11.1z"/>
</svg>
